<svg width="117" height="122" viewBox="0 0 117 122" fill="none" xmlns="http://www.w3.org/2000/svg">
<path d="M84.3988 7.01598C82.4059 8.24923 79.7584 8.75633 77.5537 9.55985C72.5331 11.3897 67.4459 13.2027 62.4946 15.1779C58.7392 16.6762 55.0508 18.4688 51.3469 20.1008C40.4642 24.8954 29.7665 30.1843 19.8595 36.769C14.7678 40.153 9.74702 44.0065 6.04716 48.9169C3.63359 52.1203 1.89122 55.9604 2.06998 60.0256C2.33517 66.0486 7.0569 70.2095 12.0366 72.8453C21.631 77.9239 32.775 80.4452 43.5239 81.6484C47.4035 82.0826 51.3543 82.6137 55.2583 82.6324C56.1676 82.6369 57.0871 82.6687 57.9954 82.6289C58.297 82.6157 58.7554 82.6275 58.9398 82.3307C59.1354 82.016 58.8019 81.7558 58.5532 81.6295C57.8112 81.253 56.8437 81.1565 56.0406 80.9507C52.4227 80.0238 48.8836 78.8644 45.2841 77.8851C35.8197 75.3101 25.9614 72.041 17.3171 67.3711C15.2645 66.2624 13.302 64.9886 11.6462 63.3379C10.8113 62.5057 10.0071 61.6055 9.76403 60.4153C9.39088 58.5894 10.1468 56.6922 11.0617 55.1534C11.7305 54.0283 12.5601 53.0045 13.4389 52.0352C18.1223 46.8681 24.0219 42.9504 30.0294 39.4974C33.6084 37.4402 37.0849 35.3284 40.7859 33.4724C56.643 25.521 73.1107 19.0757 89.8748 13.2795C95.478 11.3421 101.154 9.47761 106.89 7.96781C108.648 7.50495 110.4 7.02182 112.17 6.60359C112.911 6.42878 114.055 6.43443 114.65 5.9246C115.44 5.2497 115.229 2.89487 115.075 1.95258C114.933 1.0865 114.289 1.02199 113.539 0.919676C112.143 0.728881 110.646 0.602594 109.237 0.585444C102.979 0.508853 96.7332 0 90.4616 0C73.0518 0 55.4005 1.38799 38.439 5.55919C29.8936 7.66067 21.0913 10.2203 13.6012 14.9793C7.57459 18.8085 2.25792 24.661 2.25792 32.1566C2.25792 33.8842 2.44802 35.4451 3.19315 37.0288C3.9997 38.7432 5.05247 40.3374 6.37259 41.7059C6.77117 42.119 7.31428 42.8183 7.92955 42.8908C8.48635 42.9563 8.93382 42.433 9.29857 42.0949C10.2493 41.2136 11.2437 40.3867 12.2312 39.5467C12.5576 39.269 13.1696 38.8808 13.1696 38.393C13.1696 37.7925 12.2394 37.2287 11.8751 36.8309C11.0687 35.951 10.2092 34.9119 9.97681 33.7157C8.66158 26.9419 16.0081 22.2371 21.033 19.4617C24.9122 17.3191 29.3186 15.9362 33.5497 14.6712C41.4614 12.3058 49.6231 10.7871 57.8008 9.68945C66.5709 8.51213 75.5379 7.01598 84.3988 7.01598Z" fill="#FF593F"/>
<path d="M58.4476 39.564C58.0905 39.8659 58.442 40.2197 58.7392 40.3705C59.3682 40.6897 60.1794 40.7815 60.8606 40.9513C64.0076 41.7351 67.1624 42.592 70.2481 43.5906C78.8332 46.3686 87.3806 48.9321 95.6727 52.5372C99.9268 54.3865 104.748 56.6678 107.168 60.8051C108.661 63.3583 106.433 66.8439 104.846 68.7955C104.349 69.4061 102.949 70.4819 102.949 71.3086C102.95 71.9124 103.849 72.248 104.278 72.5005C105.489 73.2146 106.651 74.0014 107.798 74.8135C108.263 75.1423 108.766 75.5759 109.355 75.2759C110.714 74.5843 111.935 72.2162 112.685 70.9393C113.846 68.9639 114.875 66.7989 115.174 64.508C115.704 60.4389 114.056 56.0416 111.122 53.2121C107.868 50.0736 103.544 48.0787 99.3886 46.4224C90.579 42.9107 81.0184 41.1177 71.6171 40.1146C68.382 39.7695 65.0918 39.3832 61.8385 39.3676C61.0308 39.3637 59.0946 39.0174 58.4476 39.564ZM32.8936 114.984C34.0187 114.288 35.3578 113.971 36.6095 113.555C38.4518 112.943 40.2687 112.271 42.0856 111.588C48.6607 109.117 55.1841 106.54 61.6429 103.793C67.3296 101.375 72.933 98.7867 78.4622 96.0317C83.466 93.5387 88.3719 90.9151 93.1302 87.9772C94.8875 86.8923 97.3433 85.8245 98.736 84.2858C99.4778 83.4663 98.4813 82.9389 97.8238 82.5731C96.4796 81.8254 95.1278 81.1054 93.7169 80.4882C93.1903 80.2579 92.5554 79.8005 91.9568 79.872C91.1933 79.9632 90.4335 80.7008 89.8055 81.1006C88.3328 82.0382 86.814 82.9179 85.3073 83.7998C80.3528 86.6999 75.1881 89.1871 70.0526 91.7442C66.1006 93.712 61.9924 95.3954 57.927 97.1097C46.6853 101.85 35.2831 106.135 23.7017 109.982C18.728 111.634 13.6932 113.113 8.6425 114.512C7.28796 114.887 5.91093 115.237 4.53546 115.528C3.93896 115.653 3.12439 115.663 2.64191 116.075C1.87312 116.733 2.00004 119.325 2.25077 120.235C2.46551 121.014 3.26619 121.043 3.94874 121.138C5.6866 121.377 7.48021 121.313 9.22922 121.433C16.5141 121.93 23.8202 122 31.1334 122C37.2369 122 43.4428 121.637 49.5174 121.059C51.786 120.843 54.1061 120.849 56.3624 120.58C68.7585 119.103 81.4349 116.543 93.1302 112.143C101.595 108.959 111.344 103.902 114.302 94.7157C114.825 93.0903 115.247 91.1681 115.205 89.4537C115.011 81.6505 107.167 76.5244 100.953 73.3282C82.7504 63.966 62.5942 59.1721 43.259 52.7498C38.2138 51.0739 33.1836 49.3944 28.1998 47.543C26.6918 46.9827 25.1945 46.3982 23.7017 45.7985C23.1159 45.5633 22.3944 45.0981 21.7459 45.1295C21.1473 45.1585 20.6421 45.6325 20.1813 45.9642C19.0642 46.7687 17.9412 47.5665 16.8568 48.4149C16.4453 48.7369 15.5787 49.2486 15.6677 49.8732C15.7563 50.4934 16.7703 50.7838 17.2477 51.011C18.976 51.833 20.763 52.5491 22.5282 53.2871C30.1348 56.4679 37.985 58.9233 45.8015 61.5198C60.8246 66.5099 76.0829 70.7054 90.7833 76.6302C95.3271 78.4614 100.492 80.5892 104.082 84.0044C105.169 85.0383 106.408 86.1143 107.035 87.5048C109.329 92.5998 103.659 97.828 99.9753 100.33C94.9905 103.715 89.1118 105.765 83.3516 107.411C76.9843 109.23 70.5237 110.577 63.9898 111.655C57.7559 112.684 51.4983 113.437 45.2147 114.043C41.1288 114.437 37.0024 114.984 32.8936 114.984Z" fill="#FF593F"/>
</svg>
