<svg width="979" height="746" viewBox="0 0 979 746" fill="none" xmlns="http://www.w3.org/2000/svg">
<path d="M7.66936 504.707L416.119 740.531C422.182 744.029 429.066 745.852 436.066 745.813C443.065 745.773 449.928 743.873 455.951 740.307C546.612 686.645 916.351 471.018 976.801 434.075C979.466 432.448 978.26 428.044 977.699 425.659C976.577 420.807 966.955 413.934 960.391 410.764C950.77 406.108 941.681 400.105 932.48 394.663L901.344 376.374L865.158 354.999L825.354 331.492L783.278 306.695L740.556 281.45L698.48 256.653L658.675 233.062L622.209 211.631L590.764 193.145L565.715 178.475L555.588 172.584C550.79 169.802 545.337 168.349 539.791 168.373C534.244 168.398 528.804 169.9 524.031 172.724L7.52911 479.125C5.30823 480.447 3.47127 482.326 2.20014 484.577C0.929005 486.828 0.267791 489.371 0.281961 491.956C0.296132 494.541 0.985199 497.077 2.28093 499.313C3.57666 501.55 5.43411 503.409 7.66936 504.707V504.707Z" fill="#FFD8BD"/>
<path d="M677.133 371.212L570.147 431.578C570.147 431.578 582.686 456.459 618.843 471.663L743.726 382.236" fill="url(#paint0_linear_241_971)"/>
<path d="M339.485 381.282L112.272 528.69C112.272 528.69 348.825 681.455 399.878 702.942L696.657 528.409" fill="url(#paint1_linear_241_971)"/>
<path d="M795.48 406.416L644.426 491.634C644.426 491.634 662.126 526.782 713.207 548.241L891.134 439.123" fill="url(#paint2_linear_241_971)"/>
<path d="M244.083 101.811C244.083 101.811 205.429 112.694 216.817 182.822L301.531 128.683C301.531 128.683 267.253 95.1344 244.083 101.811V101.811Z" fill="#68E1FD"/>
<path opacity="0.39" d="M244.083 101.811C244.083 101.811 205.429 112.694 216.817 182.822L301.531 128.683C301.531 128.683 267.253 95.1344 244.083 101.811V101.811Z" fill="#06489E"/>
<path d="M540.328 405.406C419.485 339.907 462.319 238.924 462.88 140.129C463.02 108.543 462.431 75.6114 453.847 44.7554C450.705 33.535 446.498 21.7536 438.784 12.8054C434.464 7.78426 428.237 1.94967 421.561 0.434921C414.099 -1.24814 407.058 4.50231 401.083 8.03673L380.298 20.3511L325.458 52.9743L280.969 79.3141L273.115 83.9706L240.295 103.41C246.523 99.7072 260.099 112.218 263.437 116.117C271.123 125.065 275.359 136.875 278.501 148.067C287.084 178.699 287.673 211.743 287.533 243.44C287.084 342.32 231.431 467.595 352.415 533.01C419.737 569.476 522.88 631.749 522.88 631.749L724.146 512.14C702.771 499.209 598.366 436.823 540.328 405.406V405.406Z" fill="#68E1FD"/>
<path d="M500.58 228.069L488.266 218.84C488.246 218.445 488.131 218.06 487.931 217.718C487.73 217.376 487.451 217.088 487.116 216.877C475.353 208.686 463.609 200.458 451.884 192.192C451.515 191.908 451.081 191.72 450.621 191.646C450.162 191.571 449.691 191.613 449.251 191.766C448.811 191.919 448.416 192.179 448.102 192.523C447.788 192.866 447.565 193.283 447.452 193.735C446.218 195.867 447.788 198.083 449.78 199.738C451.772 201.393 454.24 203.412 456.484 205.348C456.193 205.56 455.945 205.827 455.755 206.133C453.96 208.938 450.958 212.922 450.93 216.428C450.902 219.934 453.735 221.673 455.923 223.581V224.086C455.474 228.406 457.382 229.696 460.804 231.744C461.133 231.966 461.506 232.117 461.898 232.184C462.29 232.252 462.691 232.236 463.076 232.136C465.45 233.682 467.957 235.015 470.566 236.12L480.945 241.393C483.581 242.74 485.489 239.57 484.423 237.438C486.499 237.606 487.368 235.334 486.835 233.567C487.101 233.308 487.303 232.991 487.424 232.641V232.501L491.015 235.306C493.82 237.578 497.354 233.062 494.465 230.79L491.912 228.77L497.158 232.697C497.772 233.151 498.541 233.343 499.296 233.23C500.05 233.116 500.729 232.708 501.183 232.094C501.637 231.481 501.829 230.712 501.715 229.957C501.602 229.202 501.194 228.523 500.58 228.069V228.069Z" fill="#F04900"/>
<path d="M582.124 588.774L586.556 585.969V536.067L564.648 535.281C564.648 535.281 564.228 556.572 559.038 561.425C553.849 566.278 541.058 562.799 539.795 563.22C538.533 563.641 529.921 561.144 526.05 565.127C522.179 569.111 539.178 580.612 548.211 582.715C554.396 583.964 560.743 584.201 567.005 583.417C567.005 583.417 568.968 570.654 572.11 571.916C575.252 573.178 575.476 586.671 575.476 586.671L582.124 588.774Z" fill="#FF6753"/>
<path d="M598.618 324.591C601.7 341.695 603.519 359.003 604.06 376.373C604.425 396.009 597.496 552.926 597.496 552.926C597.496 552.926 584.481 568.186 552.783 558.985C548.183 557.667 546.724 405.855 546.724 405.855L557.692 336.232" fill="#A03DFF"/>
<path d="M584.031 245.348C582.292 245.348 523.974 243.833 484.563 208.517C484.563 208.517 465.684 227.031 473.342 241.196C473.342 241.196 529.22 295.026 571.829 284.002" fill="#FC9C54"/>
<path d="M537.833 228.686C537.754 228.564 537.646 228.464 537.518 228.395C537.391 228.326 537.248 228.29 537.103 228.29C536.959 228.29 536.816 228.326 536.689 228.395C536.561 228.464 536.453 228.564 536.374 228.686C530.757 237.185 528.74 247.565 530.764 257.55C530.988 258.616 532.615 258.167 532.419 257.101C530.627 248.063 532.299 238.681 537.103 230.817C541.904 239.786 544.373 249.818 544.285 259.99C544.285 260.217 544.375 260.435 544.535 260.595C544.696 260.756 544.913 260.846 545.14 260.846C545.367 260.846 545.585 260.756 545.745 260.595C545.905 260.435 545.996 260.217 545.996 259.99C546.068 249.02 543.253 238.224 537.833 228.686V228.686Z" fill="#42A200"/>
<path d="M522.124 627.289L526.556 624.483V574.581L504.648 573.795C504.648 573.795 504.228 595.086 499.038 599.939C493.849 604.792 481.058 601.313 479.795 601.734C478.533 602.155 469.921 599.658 466.05 603.642C462.179 607.625 479.178 619.126 488.211 621.229C494.396 622.478 500.743 622.715 507.005 621.931C507.005 621.931 508.968 609.168 512.11 610.43C515.252 611.692 515.476 625.185 515.476 625.185L522.124 627.289Z" fill="#FF6753"/>
<path d="M529.978 331.857C529.978 331.857 509.781 406.417 501.562 473.15C499.599 489.167 483.021 584.708 483.021 584.708C483.021 584.708 510.342 594.694 534.634 586.868C534.634 586.868 563.527 464.959 564.761 462.575C565.995 460.19 585.491 381.227 587.735 324.564" fill="#A03DFF"/>
<path d="M591.717 236.989L580.132 232.641C577.187 232.837 550.959 241.421 539.038 258.785C537.362 264.217 536.096 269.768 535.251 275.391C533.736 282.88 532.446 290.398 531.492 297.831C530.403 306.069 529.934 314.377 530.089 322.685C530.089 326.247 530.286 328.042 530.65 331.577C531.934 332.873 533.434 333.936 535.082 334.718C569.529 349.529 596.794 331.549 598.169 328.772C599.543 325.995 604.088 285.377 606.584 261.197C607.106 256.09 605.933 250.953 603.246 246.578C600.559 242.203 596.508 238.834 591.717 236.989V236.989Z" fill="#FFAF68"/>
<path d="M563.582 192.752C563.582 192.752 552.755 232.024 567.145 237.438C581.535 242.851 600.049 227.423 601.9 219.317C603.751 211.21 585.154 180.943 563.582 192.752Z" fill="#F04900"/>
<path d="M634.636 181.027C632.757 177.085 629.53 173.945 625.537 172.175C621.545 170.405 617.051 170.122 612.868 171.377C604.93 173.958 600.133 180.774 597.805 188.376C590.652 182.121 579.993 178.951 566.472 183.103C566.472 183.103 553.204 188.713 555.616 197.128C558.029 205.543 568.099 205.543 576.542 207.198C584.986 208.853 578.141 216.259 578.562 224.59C578.983 232.921 582.742 234.296 586.248 235.025C589.754 235.754 605.687 232.22 607.931 213.51C608.067 212.365 608.123 211.212 608.1 210.06C610.289 210.287 612.493 210.353 614.692 210.256C619.651 210.416 624.542 209.066 628.717 206.385C632.375 203.412 634.941 199.308 636.012 194.718C637.084 190.128 636.6 185.312 634.636 181.027V181.027Z" fill="#653200"/>
<path d="M549.726 235.811C550.824 234.265 551.296 232.36 551.045 230.481C550.966 229.919 550.719 229.393 550.335 228.975C549.952 228.556 549.45 228.263 548.897 228.136C548.344 228.008 547.765 228.051 547.237 228.26C546.709 228.468 546.256 228.832 545.939 229.303L544.705 230.986C544.509 228.826 544.284 226.666 543.976 224.506C543.95 223.762 543.629 223.059 543.085 222.551C542.54 222.044 541.816 221.773 541.072 221.799C540.328 221.825 539.625 222.146 539.118 222.69C538.61 223.235 538.339 223.958 538.366 224.702C538.366 225.376 538.197 226.077 538.141 226.75C537.908 227.471 537.748 228.213 537.664 228.966C534.607 229.359 530.96 230.481 530.427 233.987V234.212C528.071 234.212 525.771 235.137 525.686 237.942C525.645 238.475 525.645 239.009 525.686 239.541C523.302 240.243 521.563 241.449 521.9 244.562C522.409 248.187 523.351 251.737 524.705 255.138C524.9 255.56 525.197 255.927 525.569 256.206C525.941 256.486 526.377 256.668 526.837 256.737C527.173 258.251 527.566 259.738 527.987 261.225C528.298 261.863 528.765 262.412 529.345 262.821C529.925 263.23 530.599 263.486 531.305 263.564C532.01 263.642 532.724 263.541 533.38 263.269C534.036 262.998 534.612 262.564 535.055 262.01C535.342 261.991 535.625 261.934 535.897 261.842C536.233 262.073 536.616 262.227 537.018 262.295C537.42 262.363 537.832 262.342 538.225 262.235C538.573 262.481 538.971 262.646 539.392 262.715C539.812 262.785 540.243 262.758 540.651 262.636C541.059 262.514 541.434 262.301 541.748 262.013C542.061 261.725 542.305 261.369 542.461 260.972C542.789 260.68 543.044 260.314 543.205 259.904C543.366 259.495 543.428 259.054 543.387 258.616C543.387 257.971 543.387 257.326 543.387 256.708C545.631 249.752 547.744 242.786 549.726 235.811V235.811Z" fill="#F04900"/>
<path d="M544.929 250.341C544.031 250.565 531.408 238.98 521.843 242.963C521.843 242.963 485.377 304.451 519.402 320.72C536.233 328.799 549.333 303.89 549.333 303.89L539.655 284.759L544.929 250.341Z" fill="#FFAF68"/>
<path d="M329.581 177.408C338.04 177.408 344.897 168.001 344.897 156.397C344.897 144.794 338.04 135.387 329.581 135.387C321.123 135.387 314.266 144.794 314.266 156.397C314.266 168.001 321.123 177.408 329.581 177.408Z" fill="white"/>
<path d="M354.546 134.799L437.072 86.4113C437.876 85.9426 438.46 85.1739 438.697 84.2744C438.934 83.3748 438.803 82.418 438.335 81.6146C437.866 80.8111 437.097 80.2267 436.198 79.99C435.298 79.7533 434.341 79.8836 433.538 80.3523L351.012 128.74C350.614 128.972 350.266 129.28 349.987 129.647C349.708 130.014 349.505 130.432 349.387 130.877C349.27 131.322 349.242 131.787 349.304 132.243C349.366 132.699 349.518 133.139 349.75 133.537C349.982 133.935 350.29 134.283 350.657 134.562C351.023 134.84 351.441 135.044 351.887 135.161C352.332 135.279 352.796 135.307 353.253 135.245C353.709 135.183 354.149 135.031 354.546 134.799V134.799Z" fill="#F2F2F2"/>
<path d="M361.336 150.844L413.595 120.886C414.398 120.417 414.982 119.649 415.219 118.749C415.456 117.849 415.326 116.893 414.857 116.089C414.388 115.286 413.62 114.701 412.72 114.465C411.82 114.228 410.864 114.358 410.06 114.827L357.689 144.785C356.886 145.269 356.307 146.052 356.081 146.962C355.855 147.872 355.999 148.835 356.483 149.638C356.967 150.442 357.749 151.02 358.66 151.246C359.57 151.472 360.532 151.328 361.336 150.844V150.844Z" fill="#F2F2F2"/>
<path d="M342.395 251.227C344.716 239.858 339.879 229.27 331.592 227.578C323.304 225.886 314.704 233.73 312.382 245.099C310.061 256.468 314.898 267.056 323.185 268.749C331.473 270.441 340.073 262.596 342.395 251.227Z" fill="white"/>
<path d="M352.275 232.052L434.661 183.636C435.464 183.167 436.049 182.399 436.286 181.499C436.522 180.599 436.392 179.643 435.923 178.839C435.455 178.036 434.686 177.451 433.786 177.215C432.887 176.978 431.93 177.108 431.127 177.577L348.741 225.993C348.343 226.225 347.995 226.533 347.716 226.9C347.437 227.266 347.234 227.684 347.116 228.13C346.999 228.575 346.971 229.039 347.033 229.496C347.095 229.952 347.247 230.392 347.479 230.79C347.711 231.187 348.019 231.536 348.386 231.814C348.752 232.093 349.17 232.297 349.616 232.414C350.061 232.531 350.525 232.56 350.982 232.497C351.438 232.435 351.878 232.284 352.275 232.052Z" fill="#F2F2F2"/>
<path d="M358.951 248.097L411.21 218.138C412.014 217.67 412.598 216.901 412.835 216.001C413.071 215.102 412.941 214.145 412.472 213.342C412.004 212.538 411.235 211.954 410.335 211.717C409.436 211.48 408.479 211.611 407.676 212.079L355.417 242.038C354.613 242.506 354.029 243.275 353.792 244.175C353.556 245.074 353.686 246.031 354.155 246.834C354.623 247.638 355.392 248.222 356.291 248.459C357.191 248.696 358.148 248.565 358.951 248.097V248.097Z" fill="#F2F2F2"/>
<path d="M332.091 339.558C335.357 328.424 331.425 317.467 323.308 315.086C315.192 312.705 305.964 319.801 302.698 330.935C299.431 342.07 303.363 353.026 311.48 355.407C319.596 357.788 328.824 350.692 332.091 339.558Z" fill="white"/>
<path d="M342.233 321.786L424.619 273.37C425.016 273.138 425.365 272.83 425.643 272.463C425.922 272.097 426.126 271.679 426.243 271.233C426.36 270.788 426.389 270.324 426.327 269.867C426.264 269.411 426.113 268.971 425.881 268.574C425.649 268.176 425.341 267.827 424.974 267.549C424.607 267.27 424.189 267.066 423.744 266.949C423.298 266.832 422.834 266.803 422.378 266.866C421.922 266.928 421.482 267.079 421.084 267.311L338.699 315.727C338.301 315.959 337.952 316.267 337.674 316.634C337.395 317.001 337.191 317.419 337.074 317.864C336.957 318.309 336.928 318.774 336.991 319.23C337.053 319.686 337.204 320.126 337.436 320.524C337.668 320.922 337.976 321.27 338.343 321.549C338.71 321.827 339.128 322.031 339.573 322.148C340.019 322.266 340.483 322.294 340.939 322.232C341.395 322.17 341.835 322.018 342.233 321.786Z" fill="#F2F2F2"/>
<path d="M343.973 339.655L396.232 309.697C396.629 309.465 396.978 309.157 397.256 308.79C397.535 308.423 397.739 308.005 397.856 307.56C397.973 307.115 398.002 306.65 397.94 306.194C397.877 305.738 397.726 305.298 397.494 304.9C397.262 304.502 396.954 304.154 396.587 303.875C396.22 303.597 395.802 303.393 395.357 303.276C394.912 303.158 394.447 303.13 393.991 303.192C393.535 303.254 393.095 303.406 392.697 303.638L340.438 333.596C339.635 334.065 339.05 334.834 338.814 335.733C338.577 336.633 338.707 337.59 339.176 338.393C339.645 339.197 340.413 339.781 341.313 340.018C342.213 340.254 343.169 340.124 343.973 339.655V339.655Z" fill="#F2F2F2"/>
<path d="M327.114 437.609C335.572 437.609 342.429 428.202 342.429 416.598C342.429 404.995 335.572 395.588 327.114 395.588C318.655 395.588 311.798 404.995 311.798 416.598C311.798 428.202 318.655 437.609 327.114 437.609Z" fill="white"/>
<path d="M351.181 399.291L433.567 350.875C434.37 350.406 434.955 349.637 435.191 348.738C435.428 347.838 435.298 346.881 434.829 346.078C434.597 345.68 434.289 345.332 433.922 345.053C433.556 344.774 433.138 344.571 432.692 344.453C431.793 344.217 430.836 344.347 430.032 344.816L347.647 393.204C347.249 393.436 346.901 393.744 346.622 394.11C346.343 394.477 346.139 394.895 346.022 395.34C345.905 395.786 345.877 396.25 345.939 396.706C346.001 397.163 346.152 397.602 346.384 398C346.617 398.398 346.925 398.746 347.291 399.025C347.658 399.304 348.076 399.508 348.521 399.625C348.967 399.742 349.431 399.77 349.887 399.708C350.344 399.646 350.783 399.495 351.181 399.263V399.291Z" fill="#F2F2F2"/>
<path d="M358.531 414.271L410.79 384.313C411.593 383.844 412.178 383.075 412.414 382.176C412.651 381.276 412.521 380.319 412.052 379.516C411.82 379.118 411.512 378.77 411.145 378.491C410.778 378.212 410.36 378.009 409.915 377.891C409.016 377.655 408.059 377.785 407.255 378.254L354.996 408.212C354.193 408.681 353.609 409.449 353.372 410.349C353.135 411.249 353.265 412.205 353.734 413.009C354.203 413.812 354.972 414.397 355.871 414.633C356.771 414.87 357.727 414.74 358.531 414.271V414.271Z" fill="#F2F2F2"/>
<path d="M321.054 158.053L324.364 151.629C324.364 151.629 331.826 159.848 331.826 159.034C331.826 158.221 338.895 126.72 338.895 126.72L344.505 131.376L335.276 169.077L321.054 158.053Z" fill="#4EB300"/>
<path d="M685.071 346.022C683.88 346.017 682.704 345.759 681.621 345.265L681.088 348.772L737.19 350.202V346.022H685.071Z" fill="#EF8A3F"/>
<path d="M681.593 345.517L681.088 348.883L711.972 366.667V362.348C701.649 357.242 691.551 351.436 681.593 345.517Z" fill="#EF8A3F"/>
<path d="M712.898 103.326C711.065 103.63 709.183 103.355 707.512 102.541L671.944 377.019C674.104 378.337 676.348 379.515 678.536 380.75L714.525 103.045L712.898 103.326Z" fill="#EF8A3F"/>
<path d="M721.089 102.989C719.793 103.131 718.485 103.131 717.19 102.989C716.152 102.989 715.086 102.989 714.048 103.157L738.088 384.62C739.914 383.726 741.786 382.93 743.698 382.236L744.651 381.759H744.82L721.089 102.989Z" fill="#EF8A3F"/>
<path d="M717.189 103.017C715.753 103.024 714.319 103.127 712.897 103.326C712.337 103.37 711.774 103.37 711.214 103.326L708.858 400.665C710.062 400.236 711.358 400.13 712.617 400.357H714.777H715.955L718.311 103.017H717.189Z" fill="#EF8A3F"/>
<path d="M678.312 107.757V169.245C678.312 169.245 749.056 171.349 749.056 169.245V107.757" fill="#FF6753"/>
<path d="M713.74 124.027C733.275 124.027 749.112 116.693 749.112 107.645C749.112 98.598 733.275 91.2637 713.74 91.2637C694.204 91.2637 678.368 98.598 678.368 107.645C678.368 116.693 694.204 124.027 713.74 124.027Z" fill="#D64338"/>
<path d="M713.74 186.553C733.275 186.553 749.112 179.218 749.112 170.171C749.112 161.123 733.275 153.789 713.74 153.789C694.204 153.789 678.368 161.123 678.368 170.171C678.368 179.218 694.204 186.553 713.74 186.553Z" fill="#FF6753"/>
<path d="M541.899 252.95C533.894 265.992 528.395 280.414 525.686 295.475C525.377 297.242 528.07 298 528.491 296.233C531.143 281.41 536.547 267.214 544.424 254.381C545.265 252.726 542.853 251.323 541.899 252.95V252.95Z" fill="#F04900"/>
<path d="M548.687 306.245C545.882 311.715 542.292 317.466 536.682 320.271C533.371 321.821 529.675 322.349 526.063 321.79C522.451 321.23 519.087 319.608 516.401 317.129C504.451 306.834 506.246 289.078 508.631 275.249C508.939 273.482 506.246 272.724 505.826 274.492C503.02 290.032 501.59 310.229 516.261 320.635C519.081 322.719 522.377 324.067 525.849 324.557C529.322 325.047 532.862 324.663 536.149 323.441C543.161 320.635 547.621 313.959 550.988 307.48C551.941 306.077 549.501 304.674 548.687 306.245Z" fill="#F04900"/>
<path d="M579.263 379.43C577.468 415.083 566.949 449.249 558.028 483.584C549.108 517.918 541.506 552.112 534.999 586.755L538.028 585.913C544.629 550.924 552.428 516.188 561.423 481.704C570.259 448.043 580.301 414.382 582.068 379.43C582.152 377.635 579.347 377.635 579.263 379.43V379.43Z" fill="#653200"/>
<path d="M767.794 334.83V429.389L841.007 471.662L900.671 436.206V348.35" fill="#FFAF68"/>
<path d="M841.007 471.662V378.365L900.671 351.941V436.206L841.007 471.662Z" fill="#F49E5D"/>
<path d="M900.67 343.442V351.942L895.004 353.681L891.245 347.903" fill="#EA8E50"/>
<path d="M828.075 307.621L767.765 343.33L843.166 386.865C845.41 388.155 900.642 351.942 900.642 351.942L828.075 307.621Z" fill="#EA8E50"/>
<path d="M767.794 343.33V334.83L778.622 329.444L777.303 344.564" fill="#EA8E50"/>
<path d="M828.075 299.121L767.765 334.83L843.166 378.365C845.41 379.655 900.642 343.442 900.642 343.442L828.075 299.121Z" fill="#FFB883"/>
<path d="M778.313 361.507V381.058L833.181 412.363V393.176L778.313 361.507Z" fill="#EA8E50"/>
<path d="M777.583 390.736V410.315L832.451 441.62V422.405L777.583 390.736Z" fill="#EA8E50"/>
<path d="M803.614 389.424C804.971 389.295 805.922 387.627 805.738 385.699C805.554 383.772 804.305 382.314 802.948 382.443C801.591 382.573 800.64 384.24 800.824 386.168C801.008 388.096 802.257 389.554 803.614 389.424Z" fill="#FFB883"/>
<path d="M801.339 417.648C802.696 417.518 803.647 415.851 803.464 413.923C803.28 411.995 802.03 410.537 800.673 410.667C799.316 410.796 798.365 412.464 798.549 414.392C798.733 416.32 799.982 417.777 801.339 417.648Z" fill="#FFB883"/>
<path d="M140.041 580.304L212.132 537.19L117.937 500.892L60.0679 533.459C85.7345 550.738 113.87 563.95 140.041 580.304V580.304Z" fill="url(#paint3_linear_241_971)"/>
<path d="M169.467 402.433C134.965 402.433 106.97 411.577 106.97 422.854H231.965C231.965 411.577 203.97 402.433 169.467 402.433Z" fill="#06489E"/>
<path d="M107.166 424.453L106.97 422.882C106.975 423.411 107.041 423.938 107.166 424.453V424.453Z" fill="#06489E"/>
<path d="M231.964 422.882L231.711 424.677C231.874 424.092 231.958 423.489 231.964 422.882V422.882Z" fill="#06489E"/>
<path d="M169.467 443.304C202.147 443.304 228.935 435.113 231.712 424.65L231.965 422.854H106.97L107.166 424.425C109.635 435.001 136.563 443.304 169.467 443.304Z" fill="#06489E"/>
<path d="M179.285 317.383H193.338V462.434H179.285V317.383Z" fill="#25B000"/>
<path d="M186.325 320.356C190.214 320.356 193.366 319.025 193.366 317.383C193.366 315.74 190.214 314.409 186.325 314.409C182.437 314.409 179.285 315.74 179.285 317.383C179.285 319.025 182.437 320.356 186.325 320.356Z" fill="#25B000"/>
<path d="M210.832 342.27L224.601 345.081L195.584 487.2L181.814 484.389L210.832 342.27Z" fill="#FF8F02"/>
<path d="M224.602 345.082C224.931 343.474 222.108 341.539 218.299 340.761C214.489 339.983 211.134 340.656 210.805 342.265C210.477 343.874 213.299 345.809 217.109 346.587C220.919 347.365 224.274 346.691 224.602 345.082Z" fill="#FF8F02"/>
<path d="M152.497 426.079L139.733 433.401C139.48 433.489 139.203 433.486 138.952 433.392C138.7 433.298 138.489 433.118 138.356 432.885C138.223 432.652 138.175 432.38 138.222 432.115C138.269 431.85 138.406 431.611 138.611 431.437L151.655 424.06C151.776 423.989 151.909 423.942 152.048 423.919L149.467 409.894L136.564 417.271C136.31 417.36 136.033 417.357 135.782 417.262C135.53 417.168 135.32 416.989 135.186 416.756C135.053 416.523 135.006 416.25 135.052 415.986C135.099 415.721 135.237 415.481 135.442 415.308L148.569 407.79C148.716 407.709 148.879 407.661 149.046 407.65L146.662 394.802L134.123 402.04C133.87 402.128 133.593 402.125 133.341 402.031C133.09 401.937 132.879 401.758 132.746 401.524C132.613 401.291 132.565 401.019 132.612 400.754C132.658 400.489 132.796 400.25 133.001 400.076L146.129 392.558H146.381L143.717 378.252L131.066 385.49C130.812 385.578 130.535 385.575 130.284 385.481C130.032 385.387 129.822 385.207 129.688 384.974C129.555 384.741 129.508 384.469 129.554 384.204C129.601 383.939 129.739 383.7 129.944 383.526L143.071 376.008H143.268L140.659 361.983L127.812 369.332C127.558 369.421 127.282 369.418 127.03 369.323C126.778 369.229 126.568 369.05 126.434 368.817C126.301 368.584 126.254 368.311 126.3 368.047C126.347 367.782 126.485 367.542 126.69 367.369L139.733 359.542C139.855 359.472 139.988 359.425 140.126 359.402L137.882 347.256L125.035 354.606C124.781 354.694 124.504 354.691 124.253 354.597C124.001 354.503 123.791 354.323 123.657 354.09C123.524 353.857 123.477 353.584 123.523 353.32C123.57 353.055 123.708 352.815 123.913 352.642L136.928 345.236C137.058 345.163 137.201 345.115 137.349 345.096L135.105 332.978L122.286 340.3C122.032 340.388 121.755 340.385 121.504 340.291C121.252 340.197 121.042 340.017 120.908 339.784C120.775 339.551 120.728 339.278 120.774 339.014C120.821 338.749 120.959 338.51 121.164 338.336L134.291 330.818C134.421 330.796 134.554 330.796 134.684 330.818L132.3 317.466L119.593 324.731C119.339 324.82 119.063 324.817 118.811 324.722C118.559 324.628 118.349 324.449 118.215 324.216C118.082 323.983 118.035 323.71 118.081 323.446C118.128 323.181 118.266 322.941 118.471 322.768L131.599 315.25H131.851L130.701 309.051L102.818 326.33C102.818 326.33 122.622 436.598 123.043 436.823C134.6 442.854 155.638 443.555 155.638 443.555L152.497 426.079Z" fill="#FFAF68"/>
<path d="M118.498 322.627C118.293 322.801 118.155 323.041 118.109 323.305C118.062 323.57 118.11 323.842 118.243 324.076C118.376 324.309 118.587 324.488 118.838 324.582C119.09 324.676 119.367 324.679 119.62 324.591L132.299 317.466L131.878 315.138H131.626L118.498 322.627Z" fill="#CA4300"/>
<path d="M121.276 338.336C121.071 338.51 120.933 338.75 120.887 339.014C120.84 339.279 120.887 339.551 121.021 339.785C121.154 340.018 121.365 340.197 121.616 340.291C121.868 340.385 122.144 340.388 122.398 340.3L135.217 332.979L134.797 330.679C134.667 330.656 134.534 330.656 134.404 330.679L121.276 338.336Z" fill="#CA4300"/>
<path d="M123.913 352.755C123.708 352.928 123.57 353.168 123.523 353.433C123.477 353.697 123.524 353.97 123.657 354.203C123.791 354.436 124.001 354.615 124.253 354.709C124.505 354.803 124.781 354.807 125.035 354.718L137.882 347.369L137.461 345.097C137.313 345.116 137.17 345.163 137.041 345.237L123.913 352.755Z" fill="#CA4300"/>
<path d="M126.606 367.173C126.401 367.346 126.263 367.586 126.216 367.851C126.17 368.115 126.217 368.388 126.35 368.621C126.484 368.854 126.694 369.033 126.946 369.127C127.197 369.222 127.474 369.225 127.728 369.136L140.575 361.787L140.154 359.515C140.013 359.498 139.871 359.508 139.733 359.543L126.606 367.173Z" fill="#CA4300"/>
<path d="M129.831 383.385C129.626 383.559 129.488 383.799 129.442 384.063C129.395 384.328 129.443 384.6 129.576 384.833C129.709 385.067 129.92 385.246 130.171 385.34C130.423 385.434 130.7 385.437 130.953 385.349L143.604 378.112L143.155 375.755H142.959L129.831 383.385Z" fill="#CA4300"/>
<path d="M132.861 400.076C132.656 400.25 132.518 400.49 132.472 400.754C132.425 401.019 132.472 401.291 132.606 401.524C132.739 401.758 132.95 401.937 133.201 402.031C133.453 402.125 133.729 402.128 133.983 402.04L146.69 394.775L146.269 392.446H146.017L132.861 400.076Z" fill="#CA4300"/>
<path d="M148.569 407.79L135.441 415.308C135.236 415.481 135.098 415.721 135.052 415.986C135.005 416.25 135.052 416.523 135.186 416.756C135.319 416.989 135.53 417.168 135.781 417.263C136.033 417.357 136.309 417.36 136.563 417.271L149.466 409.894L149.046 407.65C148.878 407.661 148.716 407.709 148.569 407.79V407.79Z" fill="#CA4300"/>
<path d="M138.527 431.437C138.322 431.61 138.184 431.85 138.138 432.115C138.091 432.379 138.138 432.652 138.272 432.885C138.405 433.118 138.616 433.297 138.867 433.392C139.119 433.486 139.395 433.489 139.649 433.4L152.496 426.051L152.076 423.779C151.937 423.801 151.804 423.849 151.683 423.919L138.527 431.437Z" fill="#CA4300"/>
<path d="M210.814 342.263C210.814 342.263 211.516 345.938 217.098 346.583C222.68 347.228 224.587 345.068 224.587 345.068L222.764 317.466L210.814 342.263Z" fill="#FFD8BD"/>
<path d="M222.764 317.466L217.153 329.023C217.945 329.89 219.014 330.453 220.176 330.617C221.338 330.781 222.521 330.535 223.521 329.921L222.764 317.466Z" fill="#653200"/>
<path d="M179.285 316.541C179.285 316.541 180.575 320.076 186.185 319.823C191.795 319.571 193.338 317.018 193.338 317.018L187.167 289.977L179.285 316.541Z" fill="#FFD8BD"/>
<path d="M187.196 290.117L183.521 302.403C184.425 303.149 185.561 303.556 186.733 303.556C187.905 303.556 189.04 303.149 189.945 302.403L187.196 290.117Z" fill="#653200"/>
<path d="M169.467 443.303C136.591 443.303 109.634 434.888 107.166 424.453C108.792 437.076 120.041 523.781 120.462 524.286C120.462 524.286 126.072 548.747 169.467 548.719C206.298 548.719 216.789 530.233 216.789 530.233L231.712 424.678C228.935 435.112 202.146 443.303 169.467 443.303Z" fill="#68E1FD"/>
<defs>
<linearGradient id="paint0_linear_241_971" x1="759.07" y1="323.806" x2="614.355" y2="441.564" gradientUnits="userSpaceOnUse">
<stop stop-color="#E3965D"/>
<stop offset="1" stop-color="#FFD8BD"/>
</linearGradient>
<linearGradient id="paint1_linear_241_971" x1="428.771" y1="488.268" x2="336.231" y2="641.258" gradientUnits="userSpaceOnUse">
<stop stop-color="#E3965D"/>
<stop offset="1" stop-color="#FFD8BD"/>
</linearGradient>
<linearGradient id="paint2_linear_241_971" x1="906.057" y1="352.838" x2="710.065" y2="512.364" gradientUnits="userSpaceOnUse">
<stop stop-color="#E3965D"/>
<stop offset="1" stop-color="#FFD8BD"/>
</linearGradient>
<linearGradient id="paint3_linear_241_971" x1="169.859" y1="509.84" x2="115.384" y2="551.019" gradientUnits="userSpaceOnUse">
<stop stop-color="#E3965D"/>
<stop offset="1" stop-color="#FFD8BD"/>
</linearGradient>
</defs>
</svg>
